Coordinates
version=1
nRows=7
nColumns=42
inDegrees=yes

Units are S.I. units (second, meters, Newtons, ...)
If the header above contains a line with 'inDegrees', this indicates whether rotational values are in degrees (yes) or radians (no).

endheader
time	pelvis_tilt	pelvis_list	pelvis_rotation	pelvis_tx	pelvis_ty	pelvis_tz	hip_flexion_r	hip_adduction_r	hip_rotation_r	knee_angle_r	knee_adduction_r	knee_angle_r_beta	ankle_angle_r	subtalar_angle_r	mtp_angle_r	hip_flexion_l	hip_adduction_l	hip_rotation_l	knee_angle_l	knee_adduction_l	knee_angle_l_beta	ankle_angle_l	subtalar_angle_l	mtp_angle_l	lumbar_extension	lumbar_bending	lumbar_rotation	arm_flex_r	arm_add_r	arm_rot_r	elbow_flex_r	pro_sup_r	wrist_flex_r	wrist_dev_r	arm_flex_l	arm_add_l	arm_rot_l	elbow_flex_l	pro_sup_l	wrist_flex_l	wrist_dev_l
      0.92000000	     10.32281186	      0.06255236	      8.83319125	     -0.62527074	      0.87462465	      0.16310268	      7.58388984	      0.14628052	     -5.72883505	     60.06887140	      0.07225163	      1.04839958	     18.35230085	    -15.45252175	     -7.82874990	      4.14125376	      5.04704424	     -5.93438631	     28.39396087	     -5.93961737	      0.49556810	     22.55678303	      3.12943906	     -7.82874990	    -40.52606843	      3.68101221	     -5.03555266	     14.68554097	     -6.44030509	     -1.11205183	     37.42319349	     90.00000001	      0.00000000	      0.00000000	     19.40862249	    -10.29077446	    -12.11191240	     30.93111673	     90.00000001	      0.00000000	      0.00000000
      0.93000000	     10.12058229	     -0.01763677	      8.91033341	     -0.61742231	      0.87454926	      0.16239325	      8.98956334	      0.08199239	     -5.54821549	     58.60673087	      0.07518337	      1.02288042	     18.58723571	    -15.07063046	     -7.82245167	      3.77350235	      5.08313367	     -5.87765763	     28.36933495	     -6.21543854	      0.49513830	     22.96000198	      3.12092111	     -7.82245167	    -40.43368241	      3.89524586	     -5.11579893	     14.29523628	     -6.43087346	     -1.22533979	     36.84760462	     90.00000001	      0.00000000	      0.00000000	     20.03564728	    -10.47639697	    -11.57029133	     31.51999412	     90.00000001	      0.00000000	      0.00000000
      0.94000000	     10.02160337	     -0.16462134	      9.05012430	     -0.60949851	      0.87460716	      0.16181049	     10.10338597	      0.14714462	     -5.22342725	     56.69927187	      0.28525814	      0.98958898	     18.79827033	    -14.73230377	     -7.81548033	      3.31880917	      4.96766578	     -5.67983875	     28.41129800	     -6.35931879	      0.49587069	     23.59610772	      3.09856017	     -7.81548033	    -40.44185861	      4.20414501	     -5.21160943	     14.03632900	     -6.30436914	     -1.44180997	     35.96007652	     90.00000001	      0.00000000	      0.00000000	     20.55872544	    -10.71898303	    -10.72783843	     32.13785029	     90.00000001	      0.00000000	      0.00000000
      0.95000000	     10.15093409	     -0.32208672	      9.11999730	     -0.60126987	      0.87509826	      0.16162434	     10.71475785	      0.29461009	     -4.69807185	     54.24510492	      0.70536014	      0.94675568	     18.57795354	    -14.62325909	     -7.80382557	      2.51762381	      4.59775878	     -5.43772697	     28.39490299	     -6.09531650	      0.49558455	     24.09679972	      3.24552735	     -7.80382557	    -40.66480491	      4.47563412	     -5.19226946	     13.79175305	     -6.08728417	     -2.04680884	     35.12104755	     90.00000001	      0.00000000	      0.00000000	     20.96425372	    -11.13381744	     -9.25112761	     33.06187829	     90.00000001	      0.00000000	      0.00000000
      0.96000000	      9.83793820	     -0.29605256	      9.18879048	     -0.59339700	      0.87437571	      0.16106736	     12.01515614	      0.07080694	     -4.52530977	     52.17667625	      0.80555036	      0.91065479	     18.51406967	    -14.15551221	     -7.79818163	      2.30386741	      4.79975980	     -5.46614631	     28.41547743	     -6.47055834	      0.49594364	     24.52804644	      3.18013650	     -7.79818163	    -40.43675848	      4.55540942	     -5.32734588	     13.32893081	     -6.05626666	     -2.19434731	     34.68265080	     90.00000001	      0.00000000	      0.00000000	     21.54588626	    -11.28143781	     -8.84296609	     33.63211540	     90.00000001	      0.00000000	      0.00000000
      0.97000000	     10.06021617	     -0.51665517	      9.27919366	     -0.58487930	      0.87485712	      0.16093628	     12.17184055	      0.37471593	     -3.82154082	     48.97019261	      1.31626289	      0.85469110	     18.00386516	    -14.56830569	     -7.78410573	      1.34107857	      4.34464380	     -5.30769693	     28.27838328	     -6.28756818	      0.49355090	     25.15285995	      3.39236126	     -7.78410573	    -40.72511285	      4.90986048	     -5.26307280	     13.07506594	     -5.85836915	     -3.04743922	     33.87608363	     90.00000001	      0.00000000	      0.00000000	     21.89976509	    -11.64890520	     -7.43440044	     34.58353392	     90.00000001	      0.00000000	      0.00000000
      0.98000000	      9.86581175	     -0.54060697	      9.39428274	     -0.57676201	      0.87416590	      0.16051729	     12.95924453	      0.19494930	     -3.58737938	     46.10032931	      1.67077318	      0.80460253	     17.88088848	    -14.34133189	     -7.77601992	      1.03693237	      4.35145567	     -5.32383003	     28.46083145	     -6.48853632	      0.49673522	     25.80810955	      3.34419822	     -7.77601992	    -40.57578467	      5.05785945	     -5.41552262	     12.71588400	     -5.76576016	     -3.36416378	     33.22907521	     90.00000001	      0.00000000	      0.00000000	     22.35211114	    -11.86789853	     -6.90997534	     35.21325218	     90.00000001	      0.00000000	      0.00000000
